<svg width="128" height="37" viewBox="0 0 128 37" fill="none" xmlns="http://www.w3.org/2000/svg">
<path d="M43.7323 13.9846L41.3919 16.0457C40.5705 14.9195 39.7319 14.3543 38.8847 14.3543C38.4697 14.3543 38.1274 14.4648 37.8621 14.6816C37.5968 14.9068 37.4685 15.149 37.4685 15.4253C37.4685 15.7015 37.5626 15.9607 37.7466 16.2029C38.0033 16.5301 38.7777 17.2356 40.0613 18.315C41.2679 19.3094 41.9995 19.9426 42.2562 20.2018C42.898 20.8435 43.3473 21.4512 43.6125 22.0376C43.8821 22.6198 44.0147 23.2573 44.0147 23.9542C44.0147 25.2971 43.5441 26.4105 42.6028 27.2859C41.6615 28.1656 40.4335 28.6033 38.9146 28.6033C37.7338 28.6033 36.7026 28.3186 35.8212 27.7406C34.9441 27.1669 34.1911 26.266 33.5664 25.0336L36.2191 23.4443C37.0192 24.8976 37.9348 25.6243 38.9745 25.6243C39.5179 25.6243 39.9715 25.4671 40.3394 25.1569C40.7116 24.8424 40.8913 24.4812 40.8913 24.0732C40.8913 23.6992 40.7544 23.3253 40.472 22.9556C40.1939 22.5858 39.5778 22.0121 38.628 21.243C36.8224 19.7811 35.6544 18.655 35.1281 17.8603C34.6018 17.0656 34.3408 16.2709 34.3408 15.4847C34.3408 14.3459 34.7815 13.3642 35.6544 12.5483C36.5357 11.7323 37.6225 11.3201 38.9061 11.3201C39.7361 11.3201 40.5319 11.5114 41.2764 11.8938C42.0466 12.272 42.8595 12.9732 43.7323 13.9846Z" fill="#666666"/>
<path d="M47.3828 15.9901H50.4719V21.8801C50.4719 23.0275 50.549 23.8221 50.7116 24.2683C50.8741 24.7146 51.1309 25.0588 51.486 25.3095C51.8411 25.556 52.2775 25.6792 52.7952 25.6792C53.3129 25.6792 53.7536 25.556 54.1173 25.3138C54.481 25.0715 54.7463 24.7146 54.9217 24.2429C55.0543 23.8901 55.1185 23.1422 55.1185 21.9863V15.9944H58.2034V21.1661C58.2034 23.3037 58.0365 24.7571 57.6942 25.5432C57.2792 26.5036 56.6673 27.2388 55.8587 27.7488C55.05 28.263 54.0232 28.518 52.7824 28.518C51.4261 28.518 50.3393 28.2205 49.505 27.6213C48.6664 27.0221 48.0845 26.1892 47.7422 25.1183C47.5026 24.3788 47.3828 23.0317 47.3828 21.0769V15.9901V15.9901Z" fill="#666666"/>
<path d="M62.2344 15.9901H65.3192V17.4053C65.8455 16.8273 66.4317 16.3896 67.0777 16.1049C67.7238 15.8201 68.4255 15.6757 69.1871 15.6757C69.9572 15.6757 70.6504 15.8626 71.2707 16.2451C71.8869 16.6191 72.3875 17.1715 72.764 17.8982C73.256 17.1715 73.855 16.6233 74.5695 16.2451C75.2798 15.8669 76.0628 15.6757 76.9056 15.6757C77.7828 15.6757 78.5486 15.8796 79.2204 16.2834C79.8835 16.6871 80.3585 17.214 80.6451 17.8685C80.9318 18.5186 81.0816 19.5768 81.0816 21.0429V28.2035H77.9924V22.0203C77.9924 20.6392 77.817 19.7085 77.4704 19.2156C77.1239 18.7269 76.6019 18.4804 75.9045 18.4804C75.3739 18.4804 74.8947 18.6291 74.4754 18.9309C74.0518 19.2283 73.7438 19.6448 73.5341 20.1675C73.3373 20.6902 73.2261 21.5401 73.2261 22.7045V28.1993H70.1369V22.3008C70.1369 21.2129 70.0599 20.4225 69.893 19.9338C69.7305 19.4451 69.4866 19.0838 69.1614 18.8416C68.832 18.5994 68.4383 18.4804 67.9762 18.4804C67.4628 18.4804 66.9922 18.6334 66.5771 18.9351C66.1536 19.2411 65.8412 19.6618 65.6316 20.2057C65.4262 20.7497 65.3192 21.6124 65.3192 22.781V28.1993H62.2344V15.9901V15.9901Z" fill="#666666"/>
<path d="M92.2557 19.4748C92.8932 20.1335 93.2141 21.0004 93.2141 22.0628C93.2141 23.1507 92.8932 24.0261 92.2557 24.7018C91.6139 25.3732 90.8095 25.709 89.834 25.709C88.8927 25.709 88.1012 25.369 87.4551 24.6848C86.8133 24.0006 86.4924 23.1337 86.4924 22.0755C86.4924 21.0216 86.809 20.1632 87.4423 19.496C88.0755 18.8246 88.867 18.4846 89.8254 18.4846C90.8052 18.4804 91.6139 18.8118 92.2557 19.4748ZM93.0729 17.3245C92.5252 16.7763 91.9262 16.3598 91.2802 16.0836C90.6341 15.8116 89.941 15.6714 89.2008 15.6714C87.6006 15.6714 86.24 16.2748 85.119 17.4775C83.998 18.6801 83.4375 20.227 83.4375 22.1138C83.4375 23.9326 84.0151 25.454 85.1746 26.6779C86.3341 27.9018 87.7075 28.5137 89.2949 28.5137C90.0009 28.5137 90.6555 28.3905 91.2673 28.1397C91.8706 27.8933 92.4782 27.4768 93.0772 26.9116V28.2035H96.162V15.9901H93.0772V17.3245H93.0729Z" fill="#666666"/>
<path d="M100.078 11.29H103.167V28.1992H100.078V11.29Z" fill="#666666"/>
<path d="M106.773 11.29H109.858V28.1992H106.773V11.29Z" fill="#666666"/>
<path d="M112.43 15.9901H115.587L118.779 23.6267L122.309 15.9901H125.492L117.769 32.6741H114.586L117.115 27.2771L112.43 15.9901Z" fill="#666666"/>
<path d="M21.9628 17.5285L16.4862 10.6952C15.9043 9.96849 15.07 9.50953 14.1415 9.40754C13.2131 9.3013 12.2974 9.56477 11.5701 10.1385C10.8342 10.7207 10.3806 11.5408 10.2737 12.4673C10.1667 13.3894 10.4277 14.2946 11.0096 15.0255L16.4862 21.8589C17.0595 22.5771 17.3248 23.478 17.2178 24.3917C17.1151 25.3053 16.6573 26.1212 15.9342 26.6949C15.2069 27.2686 14.3041 27.5279 13.3799 27.4216C12.4643 27.3196 11.6343 26.8649 11.0609 26.1467L7.69795 21.9779L3.1926 25.539C3.09847 25.6155 2.9915 25.6963 2.88026 25.777L2.19141 26.27L5.58433 30.4813C7.32571 32.6529 9.81157 34.0213 12.5884 34.3315C15.3695 34.646 18.0992 33.864 20.2898 32.1387C22.4762 30.4091 23.8539 27.9358 24.1748 25.1736C24.4914 22.4198 23.6999 19.7043 21.9628 17.5285Z" fill="#E95D08"/>
<path d="M21.9005 6.32233C20.1634 4.15078 17.6775 2.7824 14.8964 2.46793C12.1153 2.15346 9.38133 2.93114 7.19497 4.66073C5.00861 6.39032 3.63091 8.86359 3.31857 11.6216C3.00195 14.3838 3.78922 17.0993 5.52632 19.2709L7.69557 21.9821C7.69557 21.9821 11.0543 26.151 11.0585 26.151C11.6319 26.8692 12.4576 27.3239 13.3775 27.4259C14.2974 27.5321 15.2045 27.2729 15.9319 26.6992C16.6549 26.1255 17.1127 25.3096 17.2154 24.3959C17.3224 23.4822 17.0571 22.5813 16.4838 21.8631L11.0029 15.0255C10.421 14.2988 10.16 13.3894 10.267 12.4673C10.374 11.5408 10.8318 10.7164 11.5634 10.1385C12.2951 9.56053 13.2107 9.3013 14.1348 9.40754C15.0633 9.50953 15.8976 9.96849 16.4795 10.6952L19.7826 14.8215L24.2879 11.2604C24.3863 11.1796 24.4933 11.1031 24.6046 11.0224L25.2934 10.5252L21.9005 6.32233Z" fill="#F4AC1E"/>
</svg>
